<?xml version="1.0" encoding="utf-8"?>
<!-- Generator: Avocode 2.6.0 - http://avocode.com -->
<svg height="50" width="36" xmlns:xlink="http://www.w3.org/1999/xlink" xmlns="http://www.w3.org/2000/svg" viewBox="0 0 36 50">
    <path fill="#ffffff" fill-rule="evenodd" d="M 23.01 48.72 C 23.01 49.42 22.39 49.99 21.64 49.99 L 14.22 49.99 C 13.47 49.99 12.85 49.42 12.85 48.72 C 12.85 48.02 13.47 47.45 14.22 47.45 L 21.64 47.45 C 22.39 47.45 23.01 48.02 23.01 48.72 L 23.01 48.72 Z M 35.1 36.58 L 35.1 40.24 C 35.1 42.96 32.72 45.17 29.78 45.17 L 6.08 45.17 C 3.14 45.17 0.76 42.96 0.76 40.24 L 0.76 36.58 C 0.76 35.87 1.37 35.3 2.13 35.3 L 2.49 35.3 C 2.49 35.27 2.49 35.23 2.49 35.19 L 2.49 31.79 C 2.49 31.71 2.49 31.64 2.5 31.56 C 2.53 31.38 2.61 31.2 2.72 31.05 C 2.83 30.9 2.97 30.77 3.14 30.67 C 3.21 30.64 3.28 30.6 3.36 30.57 C 3.9 30.36 4.44 30.15 4.98 29.93 L 4.98 14.39 C 4.98 11.87 6.71 9.65 9.18 8.8 C 9.18 8.73 9.18 8.66 9.18 8.59 L 9.18 5.45 C 9.18 2.44 11.82 0 15.06 0 L 20.8 0 C 24.05 0 26.68 2.44 26.68 5.45 L 26.68 8.59 C 26.68 8.66 26.68 8.73 26.68 8.8 C 27.65 9.13 28.53 9.68 29.22 10.4 C 29.25 10.36 29.27 10.32 29.3 10.27 C 29.65 9.65 30.48 9.41 31.15 9.74 C 31.82 10.07 32.07 10.84 31.72 11.46 C 29.15 15.97 25.43 20.15 20.64 23.88 C 16.82 26.86 12.49 29.43 7.72 31.55 L 7.72 35.3 L 28.14 35.3 L 28.14 20.01 C 28.14 19.3 28.75 18.73 29.51 18.73 C 30.27 18.73 30.88 19.3 30.88 20.01 L 30.88 35.3 L 33.73 35.3 C 34.49 35.3 35.1 35.87 35.1 36.58 L 35.1 36.58 Z M 11.92 8.59 C 11.92 8.85 11.96 9.1 12.03 9.34 C 12.04 9.37 12.05 9.4 12.06 9.44 C 12.45 10.63 13.65 11.5 15.06 11.5 L 20.8 11.5 C 22.21 11.5 23.41 10.63 23.8 9.44 C 23.81 9.4 23.82 9.37 23.83 9.34 C 23.9 9.1 23.94 8.85 23.94 8.59 L 23.94 5.45 C 23.94 3.85 22.53 2.54 20.8 2.54 L 15.06 2.54 C 13.33 2.54 11.92 3.85 11.92 5.45 L 11.92 8.59 L 11.92 8.59 Z M 7.72 28.71 C 16.28 24.68 23.31 19.09 27.71 12.79 C 27.31 12.1 26.68 11.56 25.93 11.26 C 24.92 12.92 23 14.04 20.8 14.04 L 15.06 14.04 C 12.86 14.04 10.94 12.92 9.93 11.26 C 8.62 11.79 7.72 13.01 7.72 14.39 L 7.72 28.71 L 7.72 28.71 Z M 32.36 37.85 L 29.53 37.85 C 29.53 37.85 29.52 37.85 29.51 37.85 L 6.35 37.85 C 6.34 37.85 6.34 37.85 6.33 37.85 L 3.5 37.85 L 3.5 40.24 C 3.5 41.56 4.66 42.63 6.08 42.63 L 29.78 42.63 C 31.2 42.63 32.36 41.56 32.36 40.24 L 32.36 37.85 L 32.36 37.85 Z M 32.36 37.85" />
</svg>