<?xml version="1.0" encoding="utf-8"?>
<!-- Generator: Avocode 2.6.0 - http://avocode.com -->
<svg height="45" width="55" xmlns:xlink="http://www.w3.org/1999/xlink" xmlns="http://www.w3.org/2000/svg" viewBox="0 0 55 45">
    <path fill="#ffffff" fill-rule="evenodd" d="M 54.14 3.78 L 45.84 3.78 L 45.84 0.96 C 45.84 0.45 45.46 0.04 44.98 0.04 L 39.05 0.04 C 38.57 0.04 38.18 0.45 38.18 0.96 L 38.18 3.78 L 17.8 3.78 L 17.8 0.96 C 17.8 0.45 17.41 0.04 16.93 0.04 L 11 0.04 C 10.52 0.04 10.14 0.45 10.14 0.96 L 10.14 3.78 L 1.84 3.78 C 1.37 3.78 0.98 4.19 0.98 4.7 L 0.98 10.62 C 0.98 11.13 1.37 11.54 1.84 11.54 L 4.65 11.54 L 51.33 11.54 L 54.14 11.54 C 54.62 11.54 55 11.13 55 10.62 L 55 4.7 C 55 4.19 54.62 3.78 54.14 3.78 L 54.14 3.78 Z M 54.14 3.78" />
    <path fill="#ffffff" fill-rule="evenodd" d="M 4.65 43.12 C 4.65 43.78 5.15 44.32 5.77 44.32 L 50.21 44.32 C 50.83 44.32 51.33 43.78 51.33 43.12 L 51.33 14.7 L 4.65 14.7 L 4.65 43.12 L 4.65 43.12 Z M 22.68 30.84 L 25.31 21.85 C 25.35 21.7 25.49 21.59 25.64 21.59 L 29.74 21.59 C 29.85 21.59 29.95 21.65 30.02 21.74 C 30.08 21.84 30.1 21.96 30.07 22.07 L 28.47 27.37 L 32.97 27.37 C 33.1 27.37 33.21 27.44 33.28 27.56 C 33.34 27.68 33.33 27.82 33.26 27.94 L 27.24 37.93 C 27.18 38.04 27.07 38.1 26.95 38.1 C 26.91 38.1 26.87 38.1 26.83 38.08 C 26.68 38.02 26.59 37.85 26.61 37.67 L 27.58 31.32 L 23.01 31.32 C 22.9 31.32 22.8 31.27 22.73 31.17 C 22.67 31.08 22.65 30.96 22.68 30.84 L 22.68 30.84 Z M 22.68 30.84" />
</svg>