<?xml version="1.0" encoding="utf-8"?>
<!-- Generator: Avocode 2.6.0 - http://avocode.com -->
<svg height="26" width="81" xmlns:xlink="http://www.w3.org/1999/xlink" xmlns="http://www.w3.org/2000/svg" viewBox="0 0 81 26">
    <path fill="#ffffff" fill-rule="evenodd" d="M 0 17.51 C 0 21.03 2.37 22.25 2.37 22.25 L 8.59 23.4 L 8.75 23.4 C 8.75 23.4 8.75 23.4 8.75 23.32 C 8.75 19.31 12.03 15.95 16.12 15.95 C 20.21 15.95 23.48 19.23 23.48 23.32 C 23.48 23.65 23.48 23.89 23.4 24.22 C 23.4 24.3 23.4 24.38 23.32 24.46 L 59.73 25.36 L 59.73 25.36 C 59.65 24.95 59.56 24.46 59.48 24.05 L 59.48 23.4 C 59.48 19.39 62.75 16.04 66.85 16.04 C 70.94 16.04 74.21 19.31 74.21 23.4 C 74.21 23.73 74.21 23.97 74.13 24.3 C 74.13 24.46 74.05 24.63 74.05 24.79 C 76.58 24.55 78.71 24.05 79.85 23.48 C 80.92 21.68 81.08 19.15 80.92 18.57 C 80.75 18 80.51 17.02 79.77 14.89 C 78.95 12.76 64.15 9.65 62.67 9.65 C 57.6 7.53 48.93 3.35 46.96 2.7 C 35.59 -1.23 23.73 1.96 21.11 2.62 C 18.49 3.19 10.88 6.46 8.92 7.04 C 7.53 7.45 4.5 7.94 2.78 8.26 C 2.05 8.35 1.55 9 1.55 9.74 L 1.55 14.24 C 1.39 14.15 0 15.22 0 17.51 L 0 17.51 Z M 35.84 2.7 C 35.84 2.7 46.72 2.86 52.12 7.77 C 52.12 7.77 50.89 8.26 51.14 10.23 L 37.55 9.82 L 35.84 2.7 L 35.84 2.7 Z M 21.68 7.04 L 23.48 4.09 C 23.48 4.09 27.16 2.7 33.55 2.78 L 34.69 9.74 L 22.34 9.33 L 21.68 7.04 L 21.68 7.04 Z M 16.28 7.2 C 17.51 6.55 19.55 5.56 22.17 4.5 L 18.74 9.25 L 15.3 9.25 C 15.14 8.43 15.55 7.53 16.28 7.2 L 16.28 7.2 Z M 16.28 7.2" />
</svg>