<?xml version="1.0" encoding="utf-8"?>
<!-- Generator: Avocode 2.6.0 - http://avocode.com -->
<svg height="47" width="88" xmlns:xlink="http://www.w3.org/1999/xlink" xmlns="http://www.w3.org/2000/svg" viewBox="0 0 88 47">
    <path fill="#ffffff" fill-rule="evenodd" d="M 78.4 18.55 C 77.29 15.15 75.07 12.24 71.98 10.12 C 68.9 8.01 65.02 6.85 61.05 6.85 L 38.01 6.85 C 27.03 6.85 18.09 15.05 18.09 25.14 L 18.09 32.18 C 18.09 36.54 21.96 40.1 26.71 40.1 L 65.55 40.1 C 70.2 40.1 74.63 38.12 77.38 34.8 C 80.27 31.32 81.15 26.93 79.77 22.74 L 78.4 18.55 L 78.4 18.55 Z M 74.55 32.81 C 72.46 35.32 69.1 36.82 65.55 36.82 L 50.45 36.82 L 60.43 22.33 C 60.95 21.56 60.71 20.55 59.87 20.06 C 59.04 19.58 57.94 19.81 57.41 20.57 L 46.23 36.82 L 41.29 36.82 L 43.07 34.23 C 43.6 33.47 43.35 32.45 42.51 31.97 C 41.68 31.49 40.58 31.71 40.05 32.48 L 37.07 36.82 L 26.71 36.82 C 23.93 36.82 21.66 34.74 21.66 32.18 L 21.66 25.14 C 21.66 16.86 29 10.12 38.01 10.12 L 55.44 10.12 L 43.67 27.22 C 43.15 27.98 43.4 28.99 44.23 29.48 C 44.52 29.65 44.85 29.73 45.18 29.73 C 45.77 29.73 46.35 29.46 46.69 28.97 L 59.66 10.12 L 61.05 10.12 C 62.18 10.12 63.29 10.24 64.37 10.46 L 60.94 15.45 C 60.41 16.21 60.66 17.23 61.49 17.71 C 61.79 17.88 62.12 17.96 62.44 17.96 C 63.04 17.96 63.62 17.69 63.96 17.2 L 67.81 11.59 C 68.53 11.92 69.21 12.31 69.84 12.74 C 72.31 14.44 74.09 16.77 74.98 19.49 L 76.35 23.69 C 77.39 26.85 76.73 30.18 74.55 32.81 L 74.55 32.81 Z M 74.55 32.81" />
    <path fill="#ffffff" fill-rule="evenodd" d="M 86.81 20.79 L 85.44 16.6 C 83.86 11.79 80.71 7.67 76.32 4.67 C 71.94 1.67 66.73 0.09 61.26 0.09 L 38.01 0.09 C 22.97 0.09 10.74 11.33 10.74 25.14 L 10.74 29.22 L 1.95 29.22 C 0.97 29.22 0.17 29.95 0.17 30.86 L 0.17 45.21 C 0.17 46.12 0.97 46.85 1.95 46.85 L 65.73 46.85 C 72.76 46.85 79.2 43.88 83.4 38.69 C 87.6 33.5 88.84 26.98 86.81 20.79 L 86.81 20.79 Z M 80.54 36.73 C 77.02 41.08 71.62 43.57 65.73 43.57 L 3.74 43.57 L 3.74 32.5 L 12.52 32.5 C 13.51 32.5 14.31 31.76 14.31 30.86 L 14.31 25.14 C 14.31 13.14 24.94 3.37 38.01 3.37 L 61.26 3.37 C 65.96 3.37 70.43 4.73 74.2 7.3 C 77.96 9.87 80.67 13.42 82.02 17.54 L 83.4 21.74 C 85.09 26.92 84.05 32.39 80.54 36.73 L 80.54 36.73 Z M 80.54 36.73" />
</svg>