<?xml version="1.0" encoding="utf-8"?>
<!-- Generator: Avocode 2.6.0 - http://avocode.com -->
<svg height="62" width="49" xmlns:xlink="http://www.w3.org/1999/xlink" xmlns="http://www.w3.org/2000/svg" viewBox="0 0 49 62">
    <path fill="#ffffff" fill-rule="evenodd" d="M 24.46 0 C 11.05 0 0.14 10.15 0.14 22.63 C 0.14 30.16 7.59 42.06 10.8 46.82 C 13.43 50.74 16.26 54.47 18.76 57.31 C 22.83 61.94 23.97 61.94 24.46 61.94 C 24.93 61.94 26.03 61.94 30.08 57.31 C 32.59 54.45 35.42 50.72 38.05 46.82 C 41.28 42.05 48.78 30.13 48.78 22.63 C 48.78 10.15 37.87 0 24.46 0 L 24.46 0 Z M 24.46 40.9 C 13.85 40.9 5.22 32.87 5.22 23 C 5.22 13.13 13.85 5.1 24.46 5.1 C 35.07 5.1 43.7 13.13 43.7 23 C 43.7 32.87 35.07 40.9 24.46 40.9 L 24.46 40.9 Z M 24.46 40.9" />
    <path fill="#ffffff" fill-rule="evenodd" d="M 38.51 16.13 C 38.38 16.13 38.24 16.15 38.1 16.19 L 36.56 16.58 L 34.95 12.95 C 34.5 11.92 33.16 11.08 31.96 11.08 L 16.95 11.08 C 15.75 11.08 14.41 11.92 13.95 12.95 L 12.35 16.58 L 10.82 16.19 C 10.69 16.15 10.55 16.13 10.42 16.13 C 9.69 16.13 9.16 16.65 9.16 17.37 L 9.16 18.22 C 9.16 19.05 9.89 19.73 10.78 19.73 L 10.96 19.73 L 10.7 20.32 C 10.28 21.27 9.93 22.89 9.93 23.93 L 9.93 31.15 C 9.93 31.98 10.66 32.66 11.56 32.66 L 13.69 32.66 C 14.58 32.66 15.31 31.98 15.31 31.15 L 15.31 29.35 L 33.59 29.35 L 33.59 31.15 C 33.59 31.98 34.32 32.66 35.22 32.66 L 37.34 32.66 C 38.24 32.66 38.97 31.98 38.97 31.15 L 38.97 23.93 C 38.97 22.89 38.63 21.27 38.2 20.32 L 37.95 19.73 L 38.14 19.73 C 39.04 19.73 39.77 19.05 39.77 18.22 L 39.77 17.37 C 39.77 16.65 39.24 16.13 38.51 16.13 L 38.51 16.13 Z M 13.52 18.91 L 15.94 13.41 C 16.21 12.79 17.02 12.29 17.74 12.29 L 31.17 12.29 C 31.88 12.29 32.69 12.79 32.96 13.41 L 35.39 18.91 C 35.66 19.52 35.3 20.03 34.58 20.03 L 14.32 20.03 C 13.61 20.03 13.24 19.52 13.52 18.91 L 13.52 18.91 Z M 18.93 25.86 C 18.93 26.2 18.64 26.47 18.28 26.47 L 13.67 26.47 C 13.31 26.47 13.02 26.2 13.02 25.86 L 13.02 23.8 C 13.02 23.47 13.31 23.2 13.67 23.2 L 18.28 23.2 C 18.64 23.2 18.93 23.47 18.93 23.8 L 18.93 25.86 L 18.93 25.86 Z M 35.84 25.86 C 35.84 26.2 35.55 26.47 35.19 26.47 L 30.58 26.47 C 30.22 26.47 29.93 26.2 29.93 25.86 L 29.93 23.8 C 29.93 23.47 30.22 23.2 30.58 23.2 L 35.19 23.2 C 35.55 23.2 35.84 23.47 35.84 23.8 L 35.84 25.86 L 35.84 25.86 Z M 35.84 25.86" />
</svg>