<?xml version="1.0" encoding="utf-8"?>
<!-- Generator: Avocode 2.6.0 - http://avocode.com -->
<svg height="52" width="44" xmlns:xlink="http://www.w3.org/1999/xlink" xmlns="http://www.w3.org/2000/svg" viewBox="0 0 44 52">
    <path fill="#ffffff" fill-rule="evenodd" d="M 16.86 45.98 C 21.74 45.98 25.71 42.26 25.71 37.68 C 25.71 33.09 16.86 18.54 16.86 18.54 C 16.86 18.54 8 33.09 8 37.68 C 8 42.27 11.96 45.98 16.86 45.98 L 16.86 45.98 Z M 16.86 45.98" />
    <path fill="#ffffff" fill-rule="evenodd" d="M 19.33 6.94 L 19.33 4.96 L 20.7 4.96 L 20.7 0 L 5.8 0 L 5.8 4.96 L 7.35 4.96 L 7.35 6.15 L 0.97 6.15 L 0.97 51.71 L 43.03 51.71 L 43.03 22.42 L 19.33 6.94 L 19.33 6.94 Z M 39.5 48.41 L 4.5 48.41 L 4.5 9.45 L 10.87 9.45 L 10.87 4.96 L 15.81 4.96 L 15.81 8.66 L 39.51 24.14 L 39.51 48.41 L 39.5 48.41 L 39.5 48.41 Z M 39.5 48.41" />
</svg>