<?xml version="1.0" encoding="utf-8"?>
<!-- Generator: Avocode 2.6.0 - http://avocode.com -->
<svg height="20" width="19" xmlns:xlink="http://www.w3.org/1999/xlink" xmlns="http://www.w3.org/2000/svg" viewBox="0 0 19 20">
    <path fill="#ceced2" fill-rule="evenodd" d="M 13.2 13.03 C 14.45 11.65 15.23 9.8 15.23 7.76 C 15.23 3.49 11.82 0 7.62 0 C 3.42 0 0.01 3.49 0.01 7.76 C 0.01 12.04 3.42 15.52 7.62 15.52 C 9.33 15.52 10.9 14.95 12.17 13.98 L 17.83 19.75 C 17.97 19.89 18.14 19.96 18.32 19.96 C 18.49 19.96 18.67 19.89 18.8 19.75 C 19.06 19.48 19.06 19.04 18.8 18.76 L 13.2 13.03 L 13.2 13.03 Z M 1.39 7.76 C 1.39 4.26 4.17 1.4 7.62 1.4 C 11.05 1.4 13.85 4.25 13.85 7.76 C 13.85 11.27 11.06 14.12 7.62 14.12 C 4.17 14.12 1.39 11.26 1.39 7.76 L 1.39 7.76 Z M 1.39 7.76" />
</svg>