<?xml version="1.0" encoding="utf-8"?>
<!-- Generator: Avocode 2.6.0 - http://avocode.com -->
<svg height="53" width="53" xmlns:xlink="http://www.w3.org/1999/xlink" xmlns="http://www.w3.org/2000/svg" viewBox="0 0 53 53">
    <path fill="#ceced2" fill-rule="evenodd" d="M 51.63 5.05 L 35.21 0.08 L 35.12 0.08 C 35.03 0.08 34.98 0.04 34.89 0.04 L 34.66 0.04 L 34.44 0.04 C 34.35 0.04 34.3 0.04 34.21 0.08 L 34.12 0.08 L 18.29 4.92 L 2.42 0.08 C 1.87 -0.1 1.23 0.04 0.78 0.36 C 0.32 0.72 0 1.27 0 1.86 L 0 46.1 C 0 46.92 0.55 47.65 1.32 47.88 L 17.74 52.85 C 17.93 52.9 18.11 52.94 18.29 52.94 C 18.47 52.94 18.65 52.9 18.84 52.85 L 34.71 48.06 L 50.58 52.85 C 50.77 52.9 50.95 52.94 51.13 52.94 C 51.54 52.94 51.91 52.81 52.22 52.58 C 52.68 52.22 53 51.67 53 51.07 L 53 6.83 C 53 6.01 52.45 5.33 51.63 5.05 L 51.63 5.05 Z M 16.42 48.61 L 3.74 44.78 L 3.74 4.37 L 16.42 8.2 L 16.42 48.61 L 16.42 48.61 Z M 32.84 44.73 L 20.16 48.61 L 20.16 8.25 L 32.84 4.37 L 32.84 44.73 L 32.84 44.73 Z M 49.26 48.61 L 36.58 44.78 L 36.58 4.37 L 49.26 8.2 L 49.26 48.61 L 49.26 48.61 Z M 49.26 48.61" />
</svg>