<?xml version="1.0" encoding="utf-8"?>
<!-- Generator: Avocode 2.6.0 - http://avocode.com -->
<svg height="32" width="58" xmlns:xlink="http://www.w3.org/1999/xlink" xmlns="http://www.w3.org/2000/svg" viewBox="0 0 58 32">
    <path fill="#ffffff" fill-rule="evenodd" d="M 19.9 16.08 C 19.79 16.08 19.65 16.04 19.5 15.98 L 10.6 12.17 C 10.14 11.97 9.73 11.87 9.38 11.87 C 8.8 11.87 8.52 12.16 8.4 12.34 C 8.33 12.44 8.26 12.62 8.25 12.86 C 3.6 13.47 0 17.46 0 22.29 C 0 27.53 4.26 31.8 9.49 31.8 C 13.23 31.8 16.47 29.61 18.01 26.43 C 18.58 26.69 19.19 26.84 19.74 26.84 L 36.57 26.84 C 37.8 26.84 38.94 26.02 39.39 24.89 C 40.53 28.88 44.18 31.8 48.51 31.8 C 53.74 31.8 57.99 27.53 57.99 22.29 C 57.99 18.34 55.59 14.95 52.17 13.51 C 52.4 13.1 52.54 12.67 52.54 12.25 C 52.54 11.22 51.97 9.62 51.24 8.6 L 47.54 3.45 C 46.8 2.42 45.26 1.36 44.04 1.03 L 41.04 0.22 C 40.62 0.11 40.19 0.05 39.78 0.05 C 38.84 0.05 38.17 0.35 37.9 0.89 C 37.44 1.81 38.34 2.98 39.46 3.66 L 41.05 4.61 C 41.37 4.8 41.48 5 41.48 5.12 C 41.48 5.25 41.37 5.39 41.17 5.52 C 40.92 5.67 40.72 5.76 40.57 5.8 C 40.36 4.9 39.17 4.32 37.99 4.19 L 27.37 3.09 C 26 2.95 24.39 3.78 23.69 4.96 L 22.88 6.36 C 22.44 7.11 21.29 7.77 20.42 7.77 L 17.73 7.77 C 16.87 7.77 15.77 7.1 15.38 6.34 L 14.71 5.04 C 14.09 3.83 12.53 2.88 11.17 2.88 L 3.93 2.88 C 3.6 2.88 2.57 2.88 2.38 3.67 C 2.19 4.45 3.1 4.93 3.4 5.08 L 18.65 12.93 C 19.43 13.34 20.18 14.46 20.25 15.33 L 20.26 15.43 C 20.28 15.68 20.24 15.89 20.14 15.99 C 20.12 16.01 20.06 16.08 19.9 16.08 L 19.9 16.08 Z M 19.9 16.08" />
</svg>