<?xml version="1.0" encoding="utf-8"?>
<!-- Generator: Avocode 2.6.0 - http://avocode.com -->
<svg height="52" width="57" xmlns:xlink="http://www.w3.org/1999/xlink" xmlns="http://www.w3.org/2000/svg" viewBox="0 0 57 52">
    <path fill="#ffffff" fill-rule="evenodd" d="M 10.01 17.29 C 11.51 17.29 13.04 16.95 14.47 16.3 L 25.36 26.35 L 30.67 21.44 L 19.79 11.39 C 21.56 8.06 21.13 4.4 18.64 2.09 C 16.36 -0.01 12.62 -0.54 9.23 0.75 L 7.84 1.28 L 11.69 4.83 L 10.78 7.97 L 7.38 8.81 L 3.54 5.26 L 2.96 6.54 C 1.53 9.76 2.09 13.09 4.41 15.23 C 5.84 16.56 7.83 17.29 10.01 17.29 L 10.01 17.29 Z M 10.01 17.29" />
    <path fill="#ffffff" fill-rule="evenodd" d="M 54.8 35.75 C 53.37 34.43 51.38 33.7 49.2 33.7 C 47.7 33.7 46.17 34.04 44.74 34.69 L 33.86 24.63 L 28.55 29.54 L 39.43 39.6 C 37.65 42.92 38.08 46.59 40.58 48.9 C 42.01 50.22 44 50.95 46.17 50.95 C 47.45 50.95 48.73 50.71 49.98 50.23 L 51.37 49.7 L 47.52 46.15 L 48.43 43.01 L 51.83 42.17 L 55.68 45.73 L 56.25 44.44 C 57.68 41.23 57.13 37.9 54.8 35.75 L 54.8 35.75 Z M 54.8 35.75" />
    <path fill="#ffffff" fill-rule="evenodd" d="M 43.51 13.79 L 44.87 15.05 L 53.62 6.96 L 49.33 3 L 40.58 11.08 L 42.09 12.48 L 16.82 35.83 L 15.64 34.74 L 0.81 48.44 L 4.55 51.89 L 19.37 38.19 L 18.23 37.14 L 43.51 13.79 L 43.51 13.79 Z M 43.51 13.79" />
</svg>