<?xml version="1.0" encoding="utf-8"?>
<!-- Generator: Avocode 2.6.0 - http://avocode.com -->
<svg height="35" width="35" xmlns:xlink="http://www.w3.org/1999/xlink" xmlns="http://www.w3.org/2000/svg" viewBox="0 0 35 35">
    <path stroke-linejoin="miter" stroke-linecap="butt" stroke-width="1" stroke="#404040" fill="#404040" fill-rule="evenodd" d="M 27.57 33.98 C 26.21 33.98 24.56 33.64 22.76 32.96 C 18.8 31.46 14.49 28.51 10.63 24.65 C 6.77 20.79 3.82 16.48 2.33 12.52 C 0.97 8.93 0.97 5.97 2.32 4.62 C 2.51 4.42 2.71 4.22 2.91 4 C 4.15 2.7 5.54 1.24 7.39 1.31 C 8.67 1.36 9.9 2.15 11.16 3.72 C 14.9 8.37 13.21 10.02 11.27 11.94 L 10.92 12.28 C 10.6 12.6 10 14.08 15.6 19.68 C 17.43 21.51 18.99 22.85 20.24 23.66 C 21.02 24.17 22.43 24.94 23 24.36 L 23.35 24.01 C 25.26 22.07 26.92 20.39 31.56 24.12 C 33.13 25.39 33.92 26.62 33.98 27.9 C 34.05 29.74 32.58 31.14 31.28 32.37 C 31.07 32.58 30.86 32.78 30.66 32.97 C 29.99 33.64 28.92 33.98 27.57 33.98 L 27.57 33.98 Z M 7.26 2.4 C 5.95 2.4 4.76 3.65 3.71 4.76 C 3.5 4.98 3.3 5.2 3.1 5.4 C 2.09 6.4 2.19 9.05 3.35 12.14 C 4.79 15.95 7.65 20.12 11.41 23.88 C 15.16 27.63 19.33 30.49 23.15 31.93 C 26.24 33.1 28.88 33.2 29.89 32.19 C 30.09 31.99 30.3 31.78 30.53 31.57 C 31.65 30.5 32.94 29.29 32.88 27.94 C 32.84 27.01 32.17 26.01 30.87 24.98 C 27.01 21.87 25.92 22.96 24.13 24.78 L 23.78 25.14 C 22.92 26 21.53 25.81 19.64 24.58 C 18.33 23.72 16.71 22.34 14.83 20.46 C 10.18 15.81 8.69 12.96 10.15 11.5 L 10.5 11.16 C 12.32 9.36 13.42 8.28 10.31 4.41 C 9.27 3.12 8.27 2.45 7.35 2.41 C 7.32 2.4 7.29 2.4 7.26 2.4 L 7.26 2.4 Z M 7.26 2.4" />
</svg>