<?xml version="1.0" encoding="utf-8"?>
<!-- Generator: Avocode 2.6.0 - http://avocode.com -->
<svg height="44" width="55" xmlns:xlink="http://www.w3.org/1999/xlink" xmlns="http://www.w3.org/2000/svg" viewBox="0 0 55 44">
    <path fill="#ffffff" fill-rule="evenodd" d="M 54.07 7.1 C 54.07 3.23 50.67 0.08 46.49 0.08 C 42.32 0.08 38.92 3.23 38.92 7.1 C 38.92 10.54 41.59 13.4 45.11 14 L 42.38 26.75 C 42.26 27.32 41.57 28.02 40.96 28.19 L 37.75 29.08 C 37.94 28.08 38.03 27.06 38.03 26.01 C 38.03 16.28 29.5 8.36 19.01 8.36 C 8.51 8.36 -0.02 16.28 -0.02 26.01 C -0.02 35.74 8.51 43.65 19.01 43.65 C 27.43 43.65 34.6 38.55 37.09 31.49 L 41.62 30.24 C 43.05 29.85 44.35 28.52 44.65 27.16 L 47.46 14.07 C 51.18 13.63 54.07 10.67 54.07 7.1 L 54.07 7.1 Z M 19.01 38.54 C 11.54 38.54 5.49 32.93 5.49 26.01 C 5.49 19.09 11.54 13.48 19.01 13.48 C 26.47 13.48 32.52 19.09 32.52 26.01 C 32.52 27.71 32.15 29.33 31.49 30.8 L 29.21 31.44 C 30.2 29.84 30.77 27.98 30.77 26.01 C 30.77 19.99 25.49 15.1 19.01 15.1 C 12.52 15.1 7.24 19.99 7.24 26.01 C 7.24 32.02 12.52 36.92 19.01 36.92 C 21.93 36.92 24.6 35.92 26.66 34.28 C 26.71 34.29 26.75 34.29 26.79 34.29 C 26.9 34.29 27.01 34.28 27.13 34.25 L 29.84 33.5 C 27.38 36.56 23.44 38.54 19.01 38.54 L 19.01 38.54 Z M 15.27 23.5 C 14.86 24.03 14.57 24.64 14.46 25.31 L 8.75 25.31 C 8.91 23.2 9.82 21.27 11.24 19.76 L 15.27 23.5 L 15.27 23.5 Z M 12.28 18.8 C 13.91 17.49 15.99 16.65 18.27 16.49 L 18.27 21.78 C 17.55 21.89 16.88 22.15 16.31 22.53 L 12.28 18.8 L 12.28 18.8 Z M 14.46 26.68 C 14.57 27.35 14.86 27.97 15.27 28.5 L 11.23 32.24 C 9.81 30.73 8.91 28.8 8.75 26.68 L 14.46 26.68 L 14.46 26.68 Z M 16.31 29.46 C 16.88 29.84 17.55 30.11 18.27 30.22 L 18.27 35.52 C 15.98 35.37 13.9 34.53 12.27 33.21 L 16.31 29.46 L 16.31 29.46 Z M 15.66 26 C 15.66 24.29 17.16 22.9 19.01 22.9 C 20.85 22.9 22.35 24.29 22.35 26 C 22.35 27.71 20.85 29.1 19.01 29.1 C 17.16 29.1 15.66 27.71 15.66 26 L 15.66 26 Z M 21.7 22.53 C 21.13 22.15 20.47 21.89 19.74 21.78 L 19.74 16.49 C 22.02 16.65 24.1 17.49 25.73 18.8 L 21.7 22.53 L 21.7 22.53 Z M 26.77 19.76 C 28.19 21.27 29.1 23.2 29.26 25.31 L 23.56 25.31 C 23.44 24.64 23.15 24.03 22.74 23.5 L 26.77 19.76 L 26.77 19.76 Z M 19.74 30.22 C 20.47 30.11 21.13 29.84 21.7 29.46 L 25.65 33.12 C 25.64 33.18 25.64 33.23 25.64 33.29 C 24.03 34.56 21.98 35.37 19.74 35.52 L 19.74 30.22 L 19.74 30.22 Z M 22.74 28.5 C 23.16 27.97 23.44 27.35 23.56 26.68 L 29.27 26.68 C 29.11 28.72 28.27 30.57 26.95 32.06 L 26.67 32.14 L 22.74 28.5 L 22.74 28.5 Z M 46.49 11.98 C 43.59 11.98 41.23 9.79 41.23 7.1 C 41.23 4.41 43.59 2.22 46.49 2.22 C 49.4 2.22 51.76 4.41 51.76 7.1 C 51.76 9.79 49.4 11.98 46.49 11.98 L 46.49 11.98 Z M 46.49 11.98" />
    <path fill="#ffffff" fill-rule="evenodd" d="M 48.76 3.86 C 48.53 3.71 48.21 3.76 48.05 3.97 L 46.95 5.43 C 46.81 5.39 46.65 5.37 46.49 5.37 C 45.47 5.37 44.63 6.15 44.63 7.1 C 44.63 8.05 45.47 8.83 46.49 8.83 C 47.52 8.83 48.36 8.05 48.36 7.1 C 48.36 6.64 48.16 6.21 47.84 5.9 L 48.88 4.51 C 49.04 4.3 48.99 4 48.76 3.86 L 48.76 3.86 Z M 48.76 3.86" />
</svg>