<?xml version="1.0" encoding="utf-8"?>
<!-- Generator: Avocode 2.6.0 - http://avocode.com -->
<svg height="35" width="35" xmlns:xlink="http://www.w3.org/1999/xlink" xmlns="http://www.w3.org/2000/svg" viewBox="0 0 35 35">
    <path stroke-linejoin="miter" stroke-linecap="butt" stroke-width="1" stroke="#404040" fill="#404040" fill-rule="evenodd" d="M 17.5 34 C 8.4 34 1 26.6 1 17.5 C 1 8.4 8.4 1 17.5 1 C 26.6 1 34 8.4 34 17.5 C 34 26.6 26.6 34 17.5 34 L 17.5 34 Z M 17.5 2 C 8.95 2 2 8.95 2 17.5 C 2 26.05 8.95 33 17.5 33 C 26.05 33 33 26.05 33 17.5 C 33 8.95 26.05 2 17.5 2 L 17.5 2 Z M 17.5 2" />
    <path stroke-linejoin="miter" stroke-linecap="butt" stroke-width="1" stroke="#404040" fill="#404040" fill-rule="evenodd" d="M 17.5 34 C 14.07 34 10.76 32.94 7.95 30.94 C 7.8 30.83 7.72 30.65 7.75 30.47 C 7.77 30.28 7.89 30.13 8.07 30.06 C 12.21 28.53 12.88 27.28 12.88 24.89 C 12.88 24.26 12.74 24.06 12.48 23.68 C 12.15 23.19 11.68 22.51 11.36 20.74 C 11.31 20.49 11.27 20.47 11.04 20.36 C 10.43 20.07 9.88 19.65 9.73 17.73 C 9.73 16.8 10.05 16.29 10.32 16.02 C 10.26 15.69 10.16 15.12 10.07 14.5 C 9.62 11.73 9.6 8.32 13.51 6.74 C 16.91 5.36 19.63 6.12 20.48 7.02 C 21.08 7.04 22.64 7.19 23.73 8.45 C 25.39 10.39 24.86 14.82 24.68 16.02 C 24.95 16.28 25.27 16.78 25.27 17.69 C 25.12 19.65 24.57 20.07 23.96 20.36 C 23.73 20.47 23.69 20.49 23.64 20.74 C 23.32 22.51 22.86 23.19 22.52 23.68 C 22.26 24.06 22.12 24.26 22.12 24.89 C 22.12 27.28 22.79 28.53 26.93 30.06 C 27.11 30.13 27.23 30.28 27.26 30.47 C 27.28 30.65 27.2 30.83 27.05 30.94 C 24.24 32.94 20.94 34 17.5 34 L 17.5 34 Z M 9.32 30.65 C 11.78 32.19 14.59 33 17.5 33 C 20.41 33 23.22 32.19 25.68 30.65 C 22.21 29.22 21.12 27.79 21.12 24.9 C 21.12 23.96 21.4 23.55 21.69 23.12 C 22 22.67 22.37 22.12 22.66 20.56 C 22.8 19.81 23.24 19.6 23.53 19.46 C 23.84 19.31 24.16 19.16 24.27 17.66 C 24.27 16.89 23.93 16.68 23.91 16.68 C 23.73 16.57 23.61 16.35 23.65 16.14 C 23.9 14.81 24.31 10.66 22.97 9.11 C 22.06 8.05 20.62 8.02 20.34 8.03 C 20.3 8.02 20.25 8.02 20.21 8.01 C 20.08 7.98 19.86 7.87 19.79 7.75 C 19.52 7.28 17.15 6.35 13.88 7.67 C 10.65 8.98 10.64 11.78 11.06 14.35 C 11.2 15.31 11.35 16.14 11.35 16.14 C 11.39 16.36 11.28 16.59 11.07 16.68 L 11.07 16.68 C 11.07 16.68 10.73 16.89 10.73 17.69 C 10.84 19.15 11.16 19.31 11.47 19.46 C 11.76 19.6 12.2 19.81 12.34 20.56 C 12.63 22.12 13.01 22.67 13.31 23.11 C 13.61 23.55 13.88 23.95 13.88 24.89 C 13.88 27.79 12.79 29.23 9.32 30.65 L 9.32 30.65 Z M 9.32 30.65" />
</svg>